PathFileType	4	(X/Y/Z)	/Users/rkoike/Documents/python/sports2d/webcam_20250611_152632/webcam_20250611_152632_px_person03.trc
DataRate	CameraRate	NumFrames	NumMarkers	Units	OrigDataRate	OrigDataStartFrame	OrigNumFrames
30	30	4	22	m	30	1242	2485
Frame#	Time	Hip			RHip			RKnee			RAnkle			RBigToe			RSmallToe			RHeel			LHip			LKnee			LAnkle			LBigToe			LSmallToe			LHeel			Neck			Head			Nose			RShoulder			RElbow			RWrist			LShoulder			LElbow			LWrist			
		X1	Y1	Z1	X2	Y2	Z2	X3	Y3	Z3	X4	Y4	Z4	X5	Y5	Z5	X6	Y6	Z6	X7	Y7	Z7	X8	Y8	Z8	X9	Y9	Z9	X10	Y10	Z10	X11	Y11	Z11	X12	Y12	Z12	X13	Y13	Z13	X14	Y14	Z14	X15	Y15	Z15	X16	Y16	Z16	X17	Y17	Z17	X18	Y18	Z18	X19	Y19	Z19	X20	Y20	Z20	X21	Y21	Z21	X22	Y22	Z22
1242	41.416666666666664	1016.3688964843751	472.79467773437506	0.0	1245.2971781516896	663.8367080212581	0.0	1210.9811238430223	689.727280452384	0.0	1198.8921928065633	589.5830015907505	0.0	1301.371337890625	98.5625	0.0	1431.8360042126744	731.0842785054883	0.0	1219.3764778264538	645.5177275495175	0.0	1216.5422840175004	670.7696787505804	0.0	1188.5118927221254	691.4828933685505	0.0	1202.2717577210622	589.5686444692484	0.0	535.6230850219727	724.3080749511719	0.0	523.9329452514648	722.359718322754	0.0	488.8625259399414	718.463005065918	0.0	1271.364981923835	4.34663568791568	0.0	1261.0080481438613	12.80984402375488	0.0	1247.3667893784716	71.85029745999293	0.0	1247.1115168758786	21.634192472434226	0.0	1252.2302748070033	311.6528820717199	0.0	1197.0836029233817	570.5658894080346	0.0	1224.7022913911303	14.729617304228322	0.0	1216.1902353087767	280.4983531991272	0.0	1195.3284041204615	565.4178873050238	0.0
1243	41.45001341921631	1016.3688964843751	472.79467773437506	0.0	1245.4010342770773	663.759524147699	0.0	1210.9180910043933	689.6527438111747	0.0	1198.8370015510677	589.5336129810552	0.0	1301.371337890625	98.5625	0.0	1431.8404364678292	731.0621159225643	0.0	1219.3764778264538	645.5177275495175	0.0	1216.1658187771507	670.670889963436	0.0	1188.4734640919407	691.3842977009227	0.0	1202.273482427125	589.5305361477126	0.0	535.6230850219727	724.3080749511719	0.0	523.9329452514648	722.359718322754	0.0	488.8625259399414	718.463005065918	0.0	1271.3259470990165	4.367987659668296	0.0	1260.9691610152768	12.94497891119828	0.0	1247.3670471866158	71.8504874769615	0.0	1247.1434390262573	21.638847454482402	0.0	1252.3124430319083	311.62107213866716	0.0	1197.0929760903903	570.5429109894745	0.0	1224.7086798759212	14.73495540780334	0.0	1216.0989114639763	280.5289470967038	0.0	1195.3610886341005	565.3690007496936	0.0
1244	41.483360171765966	1016.3688964843752	472.79467773437506	0.0	1245.441819073344	663.7292783405231	0.0	1210.894350255963	689.6212758946251	0.0	1198.8136146511197	589.5127098062401	0.0	1301.371337890625	98.5625	0.0	1431.8424284616078	731.0544623493887	0.0	1219.3764778264538	645.5177275495175	0.0	1216.0232717725942	670.6305725914357	0.0	1188.4592197354443	691.3435908607422	0.0	1202.2741864900138	589.514384182063	0.0	535.6230850219727	724.3080749511719	0.0	523.9329452514648	722.359718322754	0.0	488.8625259399414	718.463005065918	0.0	1271.3108234358265	4.382804459467585	0.0	1260.9543478486303	13.026183334688422	0.0	1247.3672136088142	71.85060604206407	0.0	1247.1566442931398	21.642034660438686	0.0	1252.3431045331395	311.61566803335165	0.0	1197.097064820656	570.5303899588926	0.0	1224.7134101344702	14.737941874768836	0.0	1216.0674843574195	280.5545930131455	0.0	1195.3745455026892	565.3478431994209	0.0
1245	41.51670692431561	1016.3688964843753	472.79467773437506	0.0	1245.436553510938	663.7332155019283	0.0	1210.897920219676	689.6242430834693	0.0	1198.8157798663449	589.514656576677	0.0	1301.371337890625	98.5625	0.0	1431.8422966526425	731.0559739265353	0.0	1219.3764778264538	645.5177275495175	0.0	1216.0443145611807	670.6350186154559	0.0	1188.4614809853524	691.3478551497714	0.0	1202.2741089359797	589.5158777966972	0.0	535.6230850219727	724.3080749511719	0.0	523.9329452514648	722.359718322754	0.0	488.8625259399414	718.463005065918	0.0	1271.3128784602725	4.384098621072799	0.0	1260.956488688806	13.02972905804066	0.0	1247.3672246234871	71.85061264680735	0.0	1247.1552731421523	21.642300901669646	0.0	1252.3383449677578	311.6198999531978	0.0	1197.0967403050502	570.5302626307059	0.0	1224.7139071288045	14.738000171518374	0.0	1216.0737538249084	280.55807911553114	0.0	1195.3731180427155	565.349597661029	0.0
